<svg xmlns="http://www.w3.org/2000/svg" viewBox="0 0 432 432" width="432" height="432">
  <g transform="translate(216 216) scale(0.95) translate(-216 -216)">
    <g fill="none" stroke="#FFFFFF" stroke-linecap="round">
      <circle
        cx="216"
        cy="216"
        r="24"
        stroke-width="6.6"
        stroke-dasharray="40.2 10.1"
        transform="rotate(18 216 216)"
      />
      <circle
        cx="216"
        cy="216"
        r="44"
        stroke-width="7.8"
        stroke-dasharray="64.5 27.6"
        transform="rotate(-10 216 216)"
      />
      <circle
        cx="216"
        cy="216"
        r="68"
        stroke-width="9.1"
        stroke-dasharray="83.1 59.3"
        transform="rotate(-38 216 216)"
      />
      <circle
        cx="216"
        cy="216"
        r="96"
        stroke-width="10.4"
        stroke-dasharray="93.8 107.2"
        transform="rotate(-68 216 216)"
      />
      <circle
        cx="216"
        cy="216"
        r="128"
        stroke-width="11.6"
        stroke-dasharray="93.8 174.3"
        transform="rotate(-98 216 216)"
      />
      <path d="M216 190 V242" stroke-width="3.8" />
      <path d="M190 216 H242" stroke-width="3.8" />
    </g>

    <g fill="#FFFFFF">
      <circle cx="205.7" cy="237.9" r="2.8" />
      <circle cx="191.8" cy="254.7" r="3.2" />
      <circle cx="194.5" cy="281.7" r="3.7" />
      <circle cx="249" cy="307.1" r="4.2" />
      <circle cx="289" cy="321.2" r="4.8" />
      <circle cx="240.2" cy="216.9" r="3" />
      <circle cx="257.9" cy="199.3" r="3.4" />
      <circle cx="284.9" cy="191.8" r="3.8" />
      <circle cx="311.1" cy="198.3" r="4.3" />
      <circle cx="335.8" cy="231.7" r="4.9" />
      <circle cx="202.1" cy="193.8" r="2.8" />
      <circle cx="198.3" cy="174.1" r="3.3" />
      <circle cx="168.6" cy="165.6" r="3.7" />
      <circle cx="145.4" cy="140.6" r="4.2" />
      <circle cx="135.7" cy="95.5" r="4.8" />
      <circle cx="146.8" cy="157.2" r="1.6" />
      <circle cx="295.6" cy="136.4" r="2.4" />
      <circle cx="305.9" cy="288.6" r="2" />
      <circle cx="133" cy="271.4" r="1.3" />
      <circle cx="216" cy="216" r="6.4" />
    </g>
  </g>
</svg>
